# xmcd
#
# Track frame offsets:
#	150
#	19104
#	35412
#	49336
#	62606
#	78405
#	91765
#	107187
#	120538
#	135030
#	146847
#	162228
#	175064
#	190681
#	202112
#	215003
#	227835
#	242132
#	254971
#	265788
#	282251
#	293880
#	306094
#
# Disc length: 4252 seconds
#
# Revision: 1
# Processed by: cddbd v1.5.2PL0 Copyright (c) Steve Scherf et al.
# Submitted via: audiograbber 1.83.01
#
DISCID=53109a17
DTITLE=Frank Sinatra - New York New York CD 2
DYEAR=2008
DGENRE=Soul - Evergreens
TTITLE0=Lonely Town
TTITLE1=Close To You
TTITLE2=One For My Baby
TTITLE3=In The Wee Small Hours Of The Morning
TTITLE4=Where Are You?
TTITLE5=Blame It On My Youth
TTITLE6=No One Ever Tells You
TTITLE7=I Cover The Waterfront
TTITLE8=Where Is The One?
TTITLE9=It Never Entered My Mind
TTITLE10=I Couldn't Sleep A Wink Last Night
TTITLE11=Oh! Look At Me Now
TTITLE12=Night We Called It A Day
TTITLE13=What Is This Thing Called Love?
TTITLE14=Autumn Leaves
TTITLE15=I Can Read Between The Lines
TTITLE16=Like Someone In Love
TTITLE17=I Didn't Know What Time Is Was
TTITLE18=At Long Last Love
TTITLE19=I Get Along Without You Very Well
TTITLE20=There's A Small Hotel
TTITLE21=How About You
TTITLE22=Little Girl Blue
EXTD=
EXTT0=
EXTT1=
EXTT2=
EXTT3=
EXTT4=
EXTT5=
EXTT6=
EXTT7=
EXTT8=
EXTT9=
EXTT10=
EXTT11=
EXTT12=
EXTT13=
EXTT14=
EXTT15=
EXTT16=
EXTT17=
EXTT18=
EXTT19=
EXTT20=
EXTT21=
EXTT22=
PLAYORDER=
